<?xml version="1.0" standalone="no"?>
<!DOCTYPE svg PUBLIC "-//W3C//DTD SVG 20010904//EN"
 "http://www.w3.org/TR/2001/REC-SVG-20010904/DTD/svg10.dtd">
<svg version="1.0" xmlns="http://www.w3.org/2000/svg"
 width="1043.000000pt" height="1024.000000pt" viewBox="0 0 1043.000000 1024.000000"
 preserveAspectRatio="xMidYMid meet">

<g transform="translate(0.000000,1024.000000) scale(0.100000,-0.100000)"
fill="#000000" stroke="none">
<path d="M5290 10204 c-107 -19 -573 -99 -1035 -179 -462 -79 -1605 -277
-2539 -440 -934 -162 -1703 -295 -1708 -295 -4 0 -8 -1865 -8 -4145 l0 -4145
23 -5 c20 -4 594 -104 2107 -365 787 -136 771 -133 1270 -220 593 -103 1218
-213 1673 -295 l357 -65 365 0 365 0 0 596 0 597 1808 -5 c994 -3 1871 -2
1950 3 242 14 379 65 427 158 40 80 65 187 74 326 5 75 8 1599 6 3605 -3 3181
-5 3480 -20 3535 -38 139 -134 238 -280 285 -52 18 63 17 -2087 18 l-1878 2 0
535 0 535 -337 -1 c-338 -1 -338 -1 -533 -35z m4790 -4999 l0 -3615 -1960 0
-1960 0 0 475 0 475 1420 0 1420 0 0 235 0 235 -1420 0 -1420 0 0 300 0 300
1420 0 1420 0 0 230 0 230 -1420 0 -1420 0 0 353 0 354 108 -29 c418 -109 839
-79 1167 85 224 111 430 285 564 472 75 106 177 311 220 445 33 100 75 292 86
398 l7 62 -781 0 -781 0 0 633 c0 349 -3 696 -7 771 l-6 137 -36 -6 c-20 -3
-150 -30 -288 -58 l-253 -53 0 593 0 593 1960 0 1960 0 0 -3615z m-6901 1954
c314 -30 593 -157 721 -328 68 -91 143 -238 184 -361 208 -627 4 -1323 -483
-1650 -212 -142 -466 -200 -828 -187 l-163 6 0 -695 0 -694 -22 0 c-67 1 -680
59 -686 65 -10 10 -16 2839 -7 3361 l7 431 187 6 c102 3 292 15 421 26 376 33
498 36 669 20z"/>
<path d="M6997 7903 c-4 -54 -7 -403 -7 -775 l0 -678 780 0 781 0 -6 63 c-60
575 -419 1080 -947 1332 -176 83 -346 132 -529 150 l-66 7 -6 -99z"/>
<path d="M2613 5903 c3 -313 9 -581 13 -596 l6 -28 77 7 c454 37 566 108 649
409 24 87 23 336 -1 425 -41 151 -106 244 -206 295 -87 44 -159 55 -360 55
l-184 0 6 -567z"/>
</g>
</svg>
