<?xml version="1.0" standalone="no"?>
<!DOCTYPE svg PUBLIC "-//W3C//DTD SVG 20010904//EN"
 "http://www.w3.org/TR/2001/REC-SVG-20010904/DTD/svg10.dtd">
<svg version="1.0" xmlns="http://www.w3.org/2000/svg"
 width="1043.000000pt" height="1024.000000pt" viewBox="0 0 1043.000000 1024.000000"
 preserveAspectRatio="xMidYMid meet">

<g transform="translate(0.000000,1024.000000) scale(0.100000,-0.100000)"
fill="#000000" stroke="none">
<path d="M4750 10115 c-382 -68 -879 -155 -1105 -194 -986 -172 -3635 -631
-3640 -631 -3 0 -5 -1865 -5 -4145 l0 -4145 23 -5 c26 -6 773 -136 1927 -335
1399 -242 2172 -377 2836 -495 l641 -115 367 0 366 0 0 636 0 637 58 -6 c31
-4 136 -15 232 -26 358 -40 477 -46 945 -46 466 0 553 4 905 45 561 65 1228
233 1530 385 306 154 512 378 577 628 14 56 16 318 18 2907 1 1580 -1 2882 -6
2927 -38 356 -345 651 -861 829 -876 301 -1876 390 -3073 274 -115 -12 -236
-24 -267 -29 l-58 -8 0 519 0 518 -357 -1 -358 -1 -695 -123z m3320 -1199
c374 -34 724 -93 1048 -176 404 -105 709 -248 838 -394 60 -68 117 -184 118
-239 2 -96 -104 -248 -236 -338 -311 -212 -1002 -392 -1813 -471 -178 -18
-1029 -18 -1225 0 -183 16 -371 37 -522 59 l-118 16 0 739 c0 406 2 738 4 738
2 0 95 11 207 24 176 21 493 48 709 60 160 9 825 -4 990 -18z m2004 -2039 c-1
-783 -6 -852 -70 -919 -95 -98 -251 -196 -413 -259 -374 -144 -900 -248 -1521
-301 -240 -20 -1120 -17 -1370 5 -196 17 -433 42 -502 53 l-38 6 0 770 0 770
38 -6 c20 -3 102 -13 182 -21 790 -81 1642 -62 2365 55 417 67 741 162 1000
293 92 46 297 176 309 196 4 6 10 11 14 11 4 0 7 -294 6 -653z m-6820 296
c133 -446 317 -1076 755 -2583 104 -360 238 -817 296 -1015 58 -198 105 -366
105 -373 0 -9 -13 -11 -47 -7 -27 3 -176 14 -333 26 -157 11 -319 23 -360 27
l-75 7 -22 85 c-12 47 -63 245 -114 441 l-91 357 -227 6 c-124 3 -367 11 -540
17 -172 6 -316 7 -320 2 -4 -4 -52 -183 -106 -398 -54 -214 -102 -400 -107
-413 -6 -19 -13 -23 -36 -18 -15 3 -169 15 -342 27 -173 12 -317 23 -319 25
-4 3 107 402 499 1789 158 561 345 1227 416 1480 70 253 130 463 133 466 3 4
146 17 316 29 330 24 496 36 507 39 4 0 9 -7 12 -16z m6821 -2181 c0 -720 -8
-851 -53 -910 -35 -46 -159 -144 -239 -189 -317 -177 -905 -315 -1628 -383
-536 -50 -1244 -36 -1850 35 -66 8 -126 15 -132 15 -10 0 -13 161 -13 771 l0
772 53 -7 c669 -83 1496 -87 2182 -10 738 82 1265 244 1604 495 36 26 68 48
71 49 3 0 5 -287 5 -638z m-1 -1905 c-1 -529 -4 -674 -16 -767 l-16 -115 -63
-58 c-176 -160 -412 -274 -744 -356 -636 -158 -1404 -231 -2129 -202 -385 15
-929 66 -946 89 -3 4 -4 350 -2 770 3 711 4 763 20 758 25 -8 405 -44 577 -56
415 -28 961 -22 1395 15 883 76 1451 235 1841 515 46 33 84 60 84 60 0 0 0
-294 -1 -653z"/>
<path d="M2796 6415 c-38 -222 -107 -535 -201 -910 -113 -445 -168 -676 -163
-680 2 -2 175 -6 386 -10 362 -7 382 -6 382 10 0 10 -52 217 -115 459 -143
553 -206 807 -249 1011 -30 143 -34 156 -40 120z"/>
</g>
</svg>
