<?xml version="1.0" standalone="no"?>
<!DOCTYPE svg PUBLIC "-//W3C//DTD SVG 20010904//EN"
 "http://www.w3.org/TR/2001/REC-SVG-20010904/DTD/svg10.dtd">
<svg version="1.0" xmlns="http://www.w3.org/2000/svg"
 width="2000.000000pt" height="2000.000000pt" viewBox="0 0 2000.000000 2000.000000"
 preserveAspectRatio="xMidYMid meet">

<g transform="translate(0.000000,2000.000000) scale(0.100000,-0.100000)"
fill="#000000" stroke="none">
<path d="M11155 18549 c-22 -4 -242 -46 -490 -93 -247 -47 -727 -137 -1065
-201 -585 -111 -887 -167 -1910 -360 -245 -46 -650 -123 -900 -170 -250 -47
-680 -128 -955 -180 -596 -112 -1207 -227 -1935 -365 -861 -163 -1380 -260
-1460 -275 -128 -24 -923 -174 -1167 -220 -128 -25 -235 -45 -238 -45 -3 0 -5
-2988 -5 -6640 l0 -6640 23 -4 c46 -11 296 -58 712 -136 1000 -188 1302 -245
1885 -355 718 -136 1347 -254 1935 -365 231 -43 659 -124 950 -179 1799 -339
2389 -451 2525 -476 41 -8 280 -53 530 -100 250 -47 680 -128 955 -180 275
-52 544 -103 597 -113 l98 -19 2 861 3 861 3565 5 c3869 6 3564 1 3710 54 116
43 257 147 340 250 102 129 159 267 179 436 9 71 11 1637 9 6160 -3 5603 -5
6070 -20 6131 -75 301 -291 529 -590 621 l-73 23 -3560 5 -3560 5 -3 858 -2
857 -23 -1 c-12 -1 -40 -5 -62 -10z m7175 -8549 l0 -6150 -3542 2 -3543 3 -3
548 -2 547 1240 0 1240 0 0 780 0 780 -1240 0 -1240 0 2 268 3 267 1243 3
1242 2 0 775 0 775 -1245 0 -1245 0 2 293 3 292 1243 3 1242 2 0 775 0 775
-1242 2 -1243 3 0 305 0 305 1243 3 1242 2 0 775 0 775 -1242 2 -1243 3 -3
288 -2 287 1240 0 1240 0 0 780 0 780 -1240 0 -1240 0 0 543 c0 299 3 547 7
550 3 4 1599 7 3545 7 l3538 0 0 -6150z m-10294 3088 c-19 -35 -126 -238 -239
-453 -112 -214 -273 -520 -357 -680 -83 -159 -229 -436 -322 -615 -94 -179
-214 -408 -268 -510 -53 -102 -145 -275 -203 -385 -57 -110 -117 -224 -131
-253 l-27 -54 142 -266 c78 -147 172 -323 209 -392 37 -69 93 -174 125 -235
32 -60 95 -181 141 -267 46 -87 122 -229 168 -315 46 -87 159 -300 251 -473
92 -173 253 -477 357 -675 105 -198 199 -375 210 -393 11 -18 18 -36 15 -39
-10 -10 -1401 89 -1414 101 -6 6 -59 117 -116 246 -134 302 -536 1201 -665
1485 -115 256 -123 278 -161 450 -24 109 -30 125 -36 100 -61 -242 -101 -349
-270 -715 -355 -771 -410 -889 -485 -1055 -166 -364 -177 -385 -201 -385 -46
0 -1194 81 -1197 85 -2 2 33 73 78 157 82 151 282 526 510 953 64 121 188 353
275 515 208 389 300 562 400 750 45 85 105 198 134 251 l51 96 -236 484 c-130
266 -331 678 -446 914 -210 428 -328 670 -538 1101 -61 125 -109 228 -107 231
8 7 1242 90 1249 84 4 -3 72 -163 151 -356 580 -1407 608 -1478 659 -1687 12
-54 25 -98 28 -98 3 0 14 33 24 73 10 39 43 149 73 242 54 167 85 238 553
1270 68 149 163 360 212 470 49 110 93 204 98 209 8 8 1144 92 1277 95 l63 1
-34 -62z"/>
<path d="M14360 14270 l0 -780 1415 0 1415 0 0 780 0 780 -1415 0 -1415 0 0
-780z"/>
<path d="M14360 12135 l0 -775 1415 0 1415 0 0 775 0 775 -1415 0 -1415 0 0
-775z"/>
<path d="M14360 9965 l0 -775 1415 -2 1415 -3 0 778 0 777 -1415 0 -1415 0 0
-775z"/>
<path d="M14360 7825 l0 -775 1415 0 1415 0 0 775 0 775 -1415 0 -1415 0 0
-775z"/>
<path d="M14360 5730 l0 -780 1415 0 1415 0 0 780 0 780 -1415 0 -1415 0 0
-780z"/>
</g>
</svg>
